<?xml version="1.0" standalone="no"?><!DOCTYPE svg PUBLIC "-//W3C//DTD SVG 1.1//EN" "http://www.w3.org/Graphics/SVG/1.1/DTD/svg11.dtd"><svg t="1547799379435" class="icon" style="" viewBox="0 0 1024 1024" version="1.1" xmlns="http://www.w3.org/2000/svg" p-id="12377" xmlns:xlink="http://www.w3.org/1999/xlink" width="200" height="200"><defs><style type="text/css"></style></defs><path d="M256 128l682.666667 0 0 128-682.666667 0 0-128Z" fill="#BCC1CC" p-id="12378"></path><path d="M128 213.333333m-85.333333 0a85.333333 85.333333 0 1 0 170.666666 0 85.333333 85.333333 0 1 0-170.666666 0Z" fill="#BCC1CC" p-id="12379"></path><path d="M128 512m-85.333333 0a85.333333 85.333333 0 1 0 170.666666 0 85.333333 85.333333 0 1 0-170.666666 0Z" fill="#BCC1CC" p-id="12380"></path><path d="M128 810.666667m-85.333333 0a85.333333 85.333333 0 1 0 170.666666 0 85.333333 85.333333 0 1 0-170.666666 0Z" fill="#BCC1CC" p-id="12381"></path><path d="M256 448l682.666667 0 0 128-682.666667 0 0-128Z" fill="#BCC1CC" p-id="12382"></path><path d="M256 768l682.666667 0 0 128-682.666667 0 0-128Z" fill="#BCC1CC" p-id="12383"></path></svg>