<?xml version="1.0" standalone="no"?><!DOCTYPE svg PUBLIC "-//W3C//DTD SVG 1.1//EN" "http://www.w3.org/Graphics/SVG/1.1/DTD/svg11.dtd"><svg t="1547799317037" class="icon" style="" viewBox="0 0 1170 1024" version="1.1" xmlns="http://www.w3.org/2000/svg" p-id="6714" xmlns:xlink="http://www.w3.org/1999/xlink" width="228.515625" height="200"><defs><style type="text/css"></style></defs><path d="M73.142857 73.142857v731.428572h394.971429L585.142857 921.6 702.171429 804.571429H1097.142857V73.142857H73.142857z m0-73.142857h1024c43.885714 0 73.142857 29.257143 73.142857 73.142857v731.428572c0 43.885714-29.257143 73.142857-73.142857 73.142857h-365.714286l-95.085714 95.085714c-29.257143 29.257143-73.142857 29.257143-102.4 0L438.857143 877.714286H73.142857c-43.885714 0-73.142857-29.257143-73.142857-73.142857V73.142857c0-43.885714 29.257143-73.142857 73.142857-73.142857z" fill="#BBBBBB" p-id="6715"></path><path d="M292.571429 438.857143m-73.142858 0a73.142857 73.142857 0 1 0 146.285715 0 73.142857 73.142857 0 1 0-146.285715 0Z" fill="#BBBBBB" p-id="6716"></path><path d="M585.142857 438.857143m-73.142857 0a73.142857 73.142857 0 1 0 146.285714 0 73.142857 73.142857 0 1 0-146.285714 0Z" fill="#BBBBBB" p-id="6717"></path><path d="M877.714286 438.857143m-73.142857 0a73.142857 73.142857 0 1 0 146.285714 0 73.142857 73.142857 0 1 0-146.285714 0Z" fill="#BBBBBB" p-id="6718"></path></svg>