<?xml version="1.0" standalone="no"?><!DOCTYPE svg PUBLIC "-//W3C//DTD SVG 1.1//EN" "http://www.w3.org/Graphics/SVG/1.1/DTD/svg11.dtd"><svg t="1547798823787" class="icon" style="" viewBox="0 0 1024 1024" version="1.1" xmlns="http://www.w3.org/2000/svg" p-id="4631" xmlns:xlink="http://www.w3.org/1999/xlink" width="200" height="200"><defs><style type="text/css"></style></defs><path d="M519.176192 75.462656c1.589248 2.015232 3.817472 4.984832 6.909952 9.355264 13.613056 19.29216 29.83936 49.850368 29.83936 85.864448 0 44.84096-5.136384 57.745408-18.857984 92.237824-6.0416 15.183872-12.941312 32.57344-20.529152 55.087104-7.522304 22.319104-3.833856 46.897152 9.906176 66.02752 13.737984 19.12832 35.852288 30.472192 59.404288 30.472192 290.36544 0 327.282688 12.10368 345.024512 17.92 5.216256 1.71008 10.100736 3.262464 14.030848 4.642816 0 5.353472-0.077824 6.940672-0.253952 9.754624l-0.505856 10.098688c-7.473152 177.819648-41.275392 303.249408-68.319232 377.163776-27.37152 74.84416-52.441088 110.716928-52.680704 111.06304-0.987136 1.386496-2.093056 3.08224-3.080192 4.698112-2.16064 0.448512-6.1952 1.015808-12.822528 1.015808l-198.088704 0c-90.130432 0-183.296-20.471808-187.037696-21.305344-47.095808-10.719232-82.665472-17.98144-109.166592-22.900736l0.280576-476.563456c2.056192-6.309888 11.941888-29.136896 58.464256-89.964544 65.652736-85.835776 110.31552-181.086208 147.017728-263.60832L519.176192 75.462656M499.410944 0c-29.37856 0-38.146048 25.72288-47.515648 46.77632-34.43712 77.426688-77.04576 168.839168-138.295296 248.915968-50.546688 66.091008-73.506816 106.647552-73.506816 131.008512l-0.321536 542.705664c0 0 37.623808 2.224128 166.115328 31.463424l0.182272 0.045056c10.62912 2.361344 106.661888 23.085056 203.083776 23.085056l198.088704 0c37.77536 0 61.110272-11.227136 75.524096-36.489216 3.735552-5.259264 31.830016-46.4896 61.753344-128.303104 28.8256-78.788608 64.837632-212.056064 72.704-399.214592 0.165888-4.405248 0.325632-6.93248 0.45056-8.968192 0.227328-3.629056 0.374784-5.9904 0.374784-13.955072 0-25.677824-13.633536-59.5968-52.037632-70.438912l-1.25952-0.339968c-31.803392-8.214528-34.562048-24.92416-378.898432-24.92416 25.741312-76.378112 43.216896-89.48736 43.216896-170.682368 0-60.033024-28.02688-106.502144-43.216896-128.032768C562.100224 9.09312 550.135808 0 499.410944 0L499.410944 0z" p-id="4632"></path><path d="M240.924672 445.321216 240.924672 896.34816l-113.027072-0.282624L127.8976 445.321216 240.924672 445.321216M253.607936 372.180992 115.226624 372.180992c-33.349632 0-60.469248 18.855936-60.469248 42.039296L54.757376 927.45728c0 23.181312 27.119616 42.061824 60.469248 42.061824l138.379264 0c33.337344 0 60.45696-18.878464 60.45696-42.061824L314.062848 414.21824C314.064896 391.036928 286.94528 372.180992 253.607936 372.180992L253.607936 372.180992z" p-id="4633"></path></svg>