<?xml version="1.0" standalone="no"?><!DOCTYPE svg PUBLIC "-//W3C//DTD SVG 1.1//EN" "http://www.w3.org/Graphics/SVG/1.1/DTD/svg11.dtd"><svg t="1547544358268" class="icon" style="" viewBox="0 0 1024 1024" version="1.1" xmlns="http://www.w3.org/2000/svg" p-id="1569" xmlns:xlink="http://www.w3.org/1999/xlink" width="200" height="200"><defs><style type="text/css"></style></defs><path d="M708.032 484.032H540.032V288a28.032 28.032 0 1 0-56 0V512c0 15.488 12.544 28.032 28.032 28.032h196.032a27.968 27.968 0 0 0-0.064-56zM120 204.032c0-46.4 37.568-84.032 84.032-84.032h56V64h-56A139.968 139.968 0 0 0 64 204.032v56h56v-56zM820.032 64h-56v56h56c46.4 0 84.032 37.632 84.032 84.032v56H960v-56A139.968 139.968 0 0 0 820.032 64z m83.968 448a392 392 0 1 0-579.712 344.128L260.032 951.68l56 8.32 75.136-75.2a390.912 390.912 0 0 0 241.728 0L708.032 960h84.032l-92.224-103.872A391.872 391.872 0 0 0 904 512zM512 848a336 336 0 1 1 0.064-672.064A336 336 0 0 1 512 848z" fill="#323333" p-id="1570"></path></svg>